<svg version="1.1" id="Layer_1" xmlns="http://www.w3.org/2000/svg" xmlns:xlink="http://www.w3.org/1999/xlink" x="0px" y="0px"
	 width="100%" viewBox="0 0 445 392" enable-background="new 0 0 445 392" xml:space="preserve">
<path fill="#FD366E" opacity="1.000000" stroke="none" 
	d="
M1.000000,228.000000 
	C1.000000,207.645767 1.000000,187.291550 1.331455,166.800995 
	C2.104508,165.827042 2.752557,165.036240 2.955035,164.144318 
	C4.572610,157.018768 5.728507,149.766159 7.734216,142.755112 
	C14.285312,119.855453 24.623825,98.762512 38.875439,79.637390 
	C49.850998,64.908600 62.606304,52.009190 77.274178,40.853546 
	C90.602180,30.716936 104.858948,22.443621 120.241508,15.900754 
	C135.137192,9.564981 150.481766,5.056081 166.535767,2.925085 
	C167.426651,2.806829 168.181717,1.665259 169.000000,0.999999 
	C187.020889,1.000000 205.041794,1.000000 223.214096,1.349956 
	C224.210434,2.129391 225.010986,2.757371 225.907135,2.957715 
	C235.093735,5.011486 244.454956,6.453540 253.465118,9.096853 
	C286.311859,18.733078 314.472809,36.336807 338.206451,60.874043 
	C344.906281,67.800735 351.033661,75.402458 356.606201,83.273277 
	C368.594238,100.205376 378.666504,118.159065 383.030090,138.789413 
	C383.770325,142.289001 383.549561,144.104843 379.094757,144.083557 
	C346.596100,143.928116 314.096161,144.041641 281.597595,143.878632 
	C279.938934,143.870316 277.934448,142.428070 276.703552,141.089951 
	C273.379486,137.476303 270.609467,133.345062 267.222076,129.798950 
	C254.895920,116.895218 240.102661,107.972710 222.927795,103.040367 
	C206.034210,98.188797 188.954788,97.879364 172.112808,102.535995 
	C152.203156,108.040802 135.269440,118.362427 121.734596,134.519684 
	C108.327873,150.524017 101.198006,168.886444 99.171265,189.187134 
	C97.449516,206.432968 100.956474,223.151672 108.439491,238.826111 
	C115.617409,253.861465 125.903687,266.488556 139.624786,276.053284 
	C155.190384,286.903778 172.237656,293.941528 191.504837,293.961334 
	C276.336456,294.048523 361.168274,293.999603 446.000000,294.000000 
	C446.000000,326.961456 446.000000,359.922943 446.000000,393.000000 
	C354.312469,393.000000 262.624908,393.000000 170.787476,392.650940 
	C169.959473,391.881195 169.313522,391.160309 168.598419,391.083557 
	C147.811783,388.852325 128.228439,382.423706 109.676308,373.141235 
	C82.211281,359.399200 58.824799,340.611542 40.226456,315.868652 
	C20.879402,290.129669 8.213088,261.678314 2.920616,229.918762 
	C2.799614,229.192657 1.662921,228.635803 1.000000,228.000000 
z"/>
<path fill="#000000" opacity="1.000000" stroke="none" 
	d="
M446.000000,293.531372 
	C361.168274,293.999603 276.336456,294.048523 191.504837,293.961334 
	C172.237656,293.941528 155.190384,286.903778 139.624786,276.053284 
	C125.903687,266.488556 115.617409,253.861465 108.439491,238.826111 
	C100.956474,223.151672 97.449516,206.432968 99.171265,189.187134 
	C101.198006,168.886444 108.327873,150.524017 121.734596,134.519684 
	C135.269440,118.362427 152.203156,108.040802 172.112808,102.535995 
	C188.954788,97.879364 206.034210,98.188797 222.927795,103.040367 
	C240.102661,107.972710 254.895920,116.895218 267.222076,129.798950 
	C270.609467,133.345062 273.379486,137.476303 276.703552,141.089951 
	C277.934448,142.428070 279.938934,143.870316 281.597595,143.878632 
	C314.096161,144.041641 346.596100,143.928116 379.094757,144.083557 
	C383.549561,144.104843 383.770325,142.289001 383.030090,138.789413 
	C378.666504,118.159065 368.594238,100.205376 356.606201,83.273277 
	C351.033661,75.402458 344.906281,67.800735 338.206451,60.874043 
	C314.472809,36.336807 286.311859,18.733078 253.465118,9.096853 
	C244.454956,6.453540 235.093735,5.011486 225.907135,2.957715 
	C225.010986,2.757371 224.210434,2.129391 223.682755,1.349956 
	C297.917114,1.000000 371.834259,1.000000 446.000000,1.000000 
	C446.000000,57.020649 446.000000,113.041664 445.750671,169.543823 
	C445.501312,170.024979 445.022461,170.166367 444.687775,170.097183 
	C443.902130,170.074036 443.451141,170.120056 442.536255,170.095215 
	C417.808258,170.016159 393.544159,169.983032 369.280151,170.006714 
	C344.853485,170.030548 320.426880,170.110870 295.598389,170.095673 
	C293.853302,170.683090 292.510101,171.341293 291.099487,172.303467 
	C291.318695,173.087723 291.605255,173.568024 291.937836,174.482147 
	C292.202606,176.689331 292.523712,178.457001 292.622772,180.237030 
	C293.097748,188.769608 294.865906,197.509369 293.618347,205.790451 
	C291.925293,217.029022 287.907440,227.917374 284.575653,239.121460 
	C281.145752,244.390900 278.061188,249.516220 274.896271,254.591431 
	C272.710358,258.096771 270.413391,261.532837 267.760437,265.550201 
	C266.597656,271.357300 270.768066,268.867920 272.433746,268.872528 
	C328.246368,269.027374 384.059448,269.003754 439.872498,268.986023 
	C441.349121,268.985565 442.825653,268.761597 444.558716,268.792847 
	C445.210144,268.962524 445.605072,268.981262 446.000000,269.000000 
	C446.000000,277.020905 446.000000,285.041809 446.000000,293.531372 
M266.567474,267.126587 
	C266.499817,267.310883 266.432129,267.495209 266.364471,267.679504 
	C266.557770,267.621429 266.751099,267.563385 266.567474,267.126587 
z"/>
<path fill="#FD366E" opacity="1.000000" stroke="none" 
	d="
M284.886719,238.955948 
	C287.907440,227.917374 291.925293,217.029022 293.618347,205.790451 
	C294.865906,197.509369 293.097748,188.769608 292.622772,180.237030 
	C292.523712,178.457001 292.202606,176.689331 292.134705,174.261566 
	C292.523743,173.071457 292.761871,172.535721 293.375000,172.000000 
	C294.500000,172.000000 295.250000,172.000000 296.357483,172.206757 
	C298.686859,172.608963 300.657837,172.961960 302.630798,172.973358 
	C312.624878,173.031021 322.619446,173.000015 332.613861,172.999985 
	C367.261139,172.999893 401.908478,173.022720 436.555603,172.949692 
	C438.949585,172.944641 442.212677,174.205231 443.000183,170.166077 
	C443.451141,170.120056 443.902130,170.074036 444.837921,170.250641 
	C445.532867,170.668945 445.758636,170.844513 446.000000,171.000000 
	C446.000000,203.020889 446.000000,235.041794 445.571350,267.680603 
	C444.862549,268.412964 444.582397,268.527405 444.302246,268.641846 
	C442.825653,268.761597 441.349121,268.985565 439.872498,268.986023 
	C384.059448,269.003754 328.246368,269.027374 272.433746,268.872528 
	C270.768066,268.867920 266.597656,271.357300 268.080719,265.458557 
	C276.693054,258.960052 280.679901,250.205795 285.517761,242.108307 
	C285.925079,241.426559 285.125580,240.023758 284.886719,238.955948 
z"/>
<path fill="#000000" opacity="1.000000" stroke="none" 
	d="
M1.000000,228.468658 
	C1.662921,228.635803 2.799614,229.192657 2.920616,229.918762 
	C8.213088,261.678314 20.879402,290.129669 40.226456,315.868652 
	C58.824799,340.611542 82.211281,359.399200 109.676308,373.141235 
	C128.228439,382.423706 147.811783,388.852325 168.598419,391.083557 
	C169.313522,391.160309 169.959473,391.881195 170.318817,392.650940 
	C113.740524,393.000000 57.481052,393.000000 1.000000,393.000000 
	C1.000000,338.312653 1.000000,283.624969 1.000000,228.468658 
z"/>
<path fill="#000000" opacity="1.000000" stroke="none" 
	d="
M168.531342,0.999999 
	C168.181717,1.665259 167.426651,2.806829 166.535767,2.925085 
	C150.481766,5.056081 135.137192,9.564981 120.241508,15.900754 
	C104.858948,22.443621 90.602180,30.716936 77.274178,40.853546 
	C62.606304,52.009190 49.850998,64.908600 38.875439,79.637390 
	C24.623825,98.762512 14.285312,119.855453 7.734216,142.755112 
	C5.728507,149.766159 4.572610,157.018768 2.955035,164.144318 
	C2.752557,165.036240 2.104508,165.827042 1.331455,166.332336 
	C1.000000,111.072327 1.000000,56.144657 1.000000,1.000000 
	C56.687374,1.000000 112.375031,1.000000 168.531342,0.999999 
z"/>
<path fill="#FD366E" opacity="1.000000" stroke="none" 
	d="
M446.000000,170.750000 
	C445.758636,170.844513 445.532867,170.668945 445.172607,170.319824 
	C445.022461,170.166367 445.501312,170.024979 445.750671,170.012482 
	C446.000000,170.000000 446.000000,170.500000 446.000000,170.750000 
z"/>
<path fill="#FD376E" opacity="1.000000" stroke="none" 
	d="
M444.558716,268.792816 
	C444.582397,268.527405 444.862549,268.412964 445.571350,268.149292 
	C446.000000,268.000000 446.000000,268.500000 446.000000,268.750000 
	C445.605072,268.981262 445.210144,268.962524 444.558716,268.792816 
z"/>
<path fill="#FD366E" opacity="1.000000" stroke="none" 
	d="
M442.536255,170.095215 
	C442.212677,174.205231 438.949585,172.944641 436.555603,172.949692 
	C401.908478,173.022720 367.261139,172.999893 332.613861,172.999985 
	C322.619446,173.000015 312.624878,173.031021 302.630798,172.973358 
	C300.657837,172.961960 298.686859,172.608963 296.357483,171.901154 
	C296.000092,170.981369 296.000183,170.573914 296.000244,170.166458 
	C320.426880,170.110870 344.853485,170.030548 369.280151,170.006714 
	C393.544159,169.983032 417.808258,170.016159 442.536255,170.095215 
z"/>
<path fill="#FD366E" opacity="1.000000" stroke="none" 
	d="
M284.575653,239.121460 
	C285.125580,240.023758 285.925079,241.426559 285.517761,242.108307 
	C280.679901,250.205795 276.693054,258.960052 268.486328,264.908264 
	C270.413391,261.532837 272.710358,258.096771 274.896271,254.591431 
	C278.061188,249.516220 281.145752,244.390900 284.575653,239.121460 
z"/>
<path fill="#FD366E" opacity="1.000000" stroke="none" 
	d="
M295.598389,170.095673 
	C296.000183,170.573914 296.000092,170.981369 296.000000,171.694412 
	C295.250000,172.000000 294.500000,172.000000 293.069458,171.999985 
	C291.981598,171.999817 291.574219,171.999664 291.166870,171.999512 
	C292.510101,171.341293 293.853302,170.683090 295.598389,170.095673 
z"/>
<path fill="#FD366E" opacity="1.000000" stroke="none" 
	d="
M291.099487,172.303467 
	C291.574219,171.999664 291.981598,171.999817 292.694458,171.999969 
	C292.761871,172.535721 292.523743,173.071457 292.088745,173.827759 
	C291.605255,173.568024 291.318695,173.087723 291.099487,172.303467 
z"/>
<path fill="#FE376F" opacity="1.000000" stroke="none" 
	d="
M266.755920,267.315979 
	C266.751099,267.563385 266.557770,267.621429 266.364471,267.679504 
	C266.432129,267.495209 266.499817,267.310883 266.755920,267.315979 
z"/>
</svg>